<?xml version="1.0" encoding="utf-8"?>
<!-- Generator: Adobe Illustrator 21.0.0, SVG Export Plug-In . SVG Version: 6.00 Build 0)  -->
<svg version="1.1" id="Layer_1" xmlns="http://www.w3.org/2000/svg" xmlns:xlink="http://www.w3.org/1999/xlink" x="0px" y="0px"
	 viewBox="0 0 150 150" style="enable-background:new 0 0 150 150;" xml:space="preserve">
<style type="text/css">
	.st0{fill:none;}
	.st1{fill:#DBE6FE;}
	.st2{fill:#4980F8;}
	.st3{fill:none;stroke:#4980F8;stroke-width:2;stroke-linecap:round;stroke-linejoin:round;stroke-miterlimit:10;}
	.st4{fill:none;stroke:#4980F8;stroke-width:1.5;stroke-linecap:round;stroke-linejoin:round;stroke-miterlimit:10;}
</style>
<g id="ic_Khong_Don_Hang0" transform="translate(-0.8 -0.8)">
	<rect id="Rectangle_206" x="0.8" y="0.8" class="st0" width="150" height="150"/>
	<path id="Path_2636" class="st1" d="M77.8,69.8l26.5-15.3c1.5-0.9,3.5-0.4,4.4,1.1c0.3,0.5,0.4,1.1,0.4,1.7l-0.8,31.2
		c0,1.4-0.7,2.6-1.9,3.3l-30.2,17.9V72.5C76.2,71.4,76.8,70.4,77.8,69.8z"/>
	
		<ellipse id="Ellipse_116" transform="matrix(0.9567 -0.2909 0.2909 0.9567 -8.603 15.31)" class="st1" cx="47.2" cy="36.6" rx="2" ry="2"/>
	
		<ellipse id="Ellipse_117" transform="matrix(0.9567 -0.2909 0.2909 0.9567 -12.7207 37.4586)" class="st1" cx="119.6" cy="61.5" rx="2" ry="2"/>
	
		<ellipse id="Ellipse_118" transform="matrix(0.9567 -0.2909 0.2909 0.9567 -20.9314 12.5937)" class="st1" cx="31.9" cy="76.7" rx="2" ry="2"/>
	
		<ellipse id="Ellipse_119" transform="matrix(0.8251 -0.565 0.565 0.8251 -0.2135 58.647)" class="st1" cx="94.6" cy="29.7" rx="3" ry="3"/>
	
		<ellipse id="Ellipse_120" transform="matrix(0.9887 -0.1498 0.1498 0.9887 -13.0131 18.2448)" class="st1" cx="114.6" cy="95.5" rx="3" ry="3"/>
	
		<ellipse id="Ellipse_121" transform="matrix(0.9887 -0.1498 0.1498 0.9887 -12.0686 11.5582)" class="st1" cx="70.7" cy="85.9" rx="2.1" ry="2.1"/>
	
		<ellipse id="Ellipse_122" transform="matrix(0.9887 -0.1498 0.1498 0.9887 -10.809 7.9084)" class="st1" cx="47.1" cy="75.7" rx="1.6" ry="1.6"/>
	<ellipse id="Ellipse_123" class="st1" cx="75.1" cy="125.2" rx="25.5" ry="4.5"/>
	<path id="Path_2637" class="st2" d="M75.7,110.9c-0.5,0-1-0.1-1.4-0.4L44.1,92.1c-1.5-0.9-2.4-2.5-2.4-4.3V52c0-0.7,0.4-1.3,1-1.7
		l30.9-17.1c1.3-0.7,2.9-0.7,4.2,0L108.2,50c0.9,0.5,1.5,1.5,1.5,2.5v35.4c0,1.8-0.9,3.4-2.4,4.3l-30.2,18.4
		C76.7,110.8,76.2,110.9,75.7,110.9z M75.7,34.6c-0.4,0-0.8,0.1-1.1,0.3L43.7,52v35.9c0,1,0.5,2,1.4,2.5l30.2,18.4
		c0.2,0.1,0.5,0.1,0.7,0l30.2-18.4c0.9-0.5,1.4-1.5,1.4-2.5V52.5c0-0.3-0.2-0.5-0.4-0.7L76.9,35C76.5,34.8,76.1,34.7,75.7,34.6z"/>
	<path id="Path_2638" class="st2" d="M75.7,71.7c-0.7,0-1.5-0.2-2.1-0.6l-31.1-18c-0.4-0.3-0.5-1-0.1-1.4c0,0,0,0,0,0
		c0.3-0.3,0.7-0.4,1.1-0.3l31.1,18c0.7,0.4,1.6,0.4,2.3,0l30.7-18c0.4-0.4,1-0.3,1.4,0.1s0.3,1-0.1,1.4c-0.1,0.1-0.2,0.1-0.3,0.2
		l-30.7,18C77.2,71.5,76.5,71.7,75.7,71.7z"/>
	<path id="Path_2639" class="st2" d="M75.7,110.2c-0.5,0-1-0.4-1-0.9c0,0,0-0.1,0-0.1v-38c0-0.6,0.4-1,1-1s1,0.4,1,1v38
		c0,0.5-0.4,1-0.9,1C75.8,110.2,75.7,110.2,75.7,110.2z"/>
	<path id="Path_2640" class="st2" d="M63.2,40.7l33,18l0.4,12l-2.3-0.6l-1.1,1.7l-1.4-0.9L90.2,73l-0.1-10.6L57.2,43.7"/>
	<path id="Path_2641" class="st3" d="M49.5,68.4c0,0,3.9-1.2,5,2.4"/>
	<path id="Path_2642" class="st3" d="M62.4,75.4c0,0,4.7-1.5,6.1,2.9"/>
	<g id="Group_666">
		<path id="Path_2643" class="st1" d="M49.9,81.6c0,0,0.1,5.7,1.3,5.8c1.7,0,3.4,0.2,5.1,0.5c0.8,0.4,2.7,1.5,2.9,3.1
			s2.4-0.5,2.4-0.5l3.1-2.2L49.9,81.6z"/>
		<g id="Group_665">
			<path id="Path_2644" class="st4" d="M49.9,81.6l15,6.8c0,0-5.2,5-10.3,2.7C49.6,88.8,49.9,81.6,49.9,81.6z"/>
			<path id="Path_2645" class="st4" d="M59.3,91.5c-1.3-3.1-4.8-4.7-8-3.7"/>
		</g>
	</g>
</g>
</svg>
