<?xml version="1.0" encoding="utf-8"?>
<!-- Generator: Adobe Illustrator 21.0.0, SVG Export Plug-In . SVG Version: 6.00 Build 0)  -->
<svg version="1.1" id="ic_Khong_Tin_Nhan0" xmlns="http://www.w3.org/2000/svg" xmlns:xlink="http://www.w3.org/1999/xlink" x="0px"
	 y="0px" viewBox="0 0 150 150" style="enable-background:new 0 0 150 150;" xml:space="preserve">
<style type="text/css">
	.st0{fill:none;}
	.st1{fill:#DBE6FE;}
	.st2{fill:#4980F8;}
	.st3{fill:none;stroke:#4980F8;stroke-width:2;stroke-linecap:round;stroke-linejoin:round;stroke-miterlimit:10;}
</style>
<g>
	<rect id="Rectangle_205" y="0" class="st0" width="150" height="150"/>
	<path id="Path_2628" class="st1" d="M43.2,60.5c0,0,4.6,9.7,6.7,8.9c2.1-0.7,7.5-3,9.1-3s5.7,0.5,7.3,3s3.7-2.8,3.7-2.8l3.7-6.1
		H43.2z"/>
	<path id="Path_2629" class="st1" d="M99.3,50.2c-4,0-8,0.8-11.7,2.5l-0.4,0.8c0.2,9.2-4.5,17.7-12.3,22.5
		c2.3,10,12.3,17.5,24.4,17.5c2.1,0,4.1-0.2,6.1-0.7l8.3,4.3l0.6-8c6-3.9,9.9-10.2,9.9-17.3C124.2,59.9,113.1,50.2,99.3,50.2z"/>
	<path id="Path_2630" class="st2" d="M114.5,98.7l-9.3-4.9c-1.9,0.4-3.9,0.6-5.9,0.6c-12.2,0-22.9-7.6-25.3-18l1.9-0.5
		c2.3,9.6,12.1,16.6,23.4,16.6c2,0,3.9-0.3,5.8-0.7h0.4l7.3,3.8l0.5-7l0.4-0.3c6-4,9.5-9.9,9.5-16.4c0-11.4-10.7-20.6-23.9-20.6
		c-4,0-7.9,0.9-11.5,2.6l-0.9-1.8c3.9-1.8,8.1-2.8,12.4-2.8c14.3,0,25.9,10.2,25.9,22.6c0,7-3.6,13.5-10,17.8L114.5,98.7z"/>
	<circle id="Ellipse_103" class="st2" cx="108.5" cy="71.5" r="2.5"/>
	<circle id="Ellipse_104" class="st2" cx="99" cy="71.5" r="2.5"/>
	<circle id="Ellipse_105" class="st2" cx="89.5" cy="71.5" r="2.5"/>
	<circle id="Ellipse_106" class="st1" cx="28" cy="81" r="3"/>
	<circle id="Ellipse_107" class="st1" cx="38" cy="26" r="2"/>
	<circle id="Ellipse_108" class="st1" cx="125" cy="93" r="2"/>
	<circle id="Ellipse_109" class="st1" cx="67" cy="95" r="2"/>
	
		<ellipse id="Ellipse_110" transform="matrix(0.9567 -0.2909 0.2909 0.9567 -8.1966 28.8699)" class="st1" cx="93" cy="42" rx="2" ry="2"/>
	
		<ellipse id="Ellipse_111" transform="matrix(0.9567 -0.2909 0.2909 0.9567 -6.2013 38.0883)" class="st1" cx="125" cy="39.9" rx="3" ry="3"/>
	
		<ellipse id="Ellipse_112" transform="matrix(0.787 -0.617 0.617 0.787 -15.1452 16.3407)" class="st1" cx="16.1" cy="30.1" rx="3" ry="3"/>
	
		<ellipse id="Ellipse_113" transform="matrix(0.787 -0.617 0.617 0.787 -25.5634 34.3761)" class="st1" cx="37" cy="54.2" rx="3" ry="3"/>
	
		<ellipse id="Ellipse_114" transform="matrix(0.787 -0.617 0.617 0.787 -16.3173 61.1511)" class="st1" cx="80.4" cy="54.2" rx="3" ry="3"/>
	<path id="Path_2631" class="st2" d="M39,86.8l-0.8-10.7c-7.6-5.2-12-13-12-21.4c0-14.9,13.9-27.1,31-27.1s31,12.2,31,27.1
		s-13.9,27.1-31,27.1c-2.4,0-4.8-0.3-7.2-0.8L39,86.8z M57.2,29.7c-16,0-29,11.3-29,25.1c0,7.9,4.2,15.2,11.5,20l0.4,0.3l0.7,8.6
		l9-4.7h0.4c2.3,0.5,4.7,0.8,7.1,0.8c16,0,29-11.3,29-25.1S73.2,29.7,57.2,29.7z"/>
	<ellipse id="Ellipse_115" class="st1" cx="76.5" cy="122.5" rx="25.5" ry="4.5"/>
	<g id="Group_663">
		<path id="Path_2632" class="st3" d="M43.2,60.5H74c0,0-5,12.5-15.4,12.5S43.2,60.5,43.2,60.5z"/>
		<path id="Path_2633" class="st3" d="M66.9,70c-4.7-4.3-11.9-4.3-16.6,0"/>
	</g>
	<path id="Path_2634" class="st3" d="M43.2,47.4c0,0,0.8-4.5,5-4.5s5,4.5,5,4.5"/>
	<path id="Path_2635" class="st3" d="M64,47.4c0,0,0.8-4.5,5-4.5s5,4.5,5,4.5"/>
</g>
</svg>
